<svg width="123" height="168" fill="none" xmlns="http://www.w3.org/2000/svg">
  <path d="M33.5 110.3c.8-.2 1.4-.5 1.9-1a4.5 4.5 0 0 1 4-1.9l3-.1c1.3 0 2.7.2 3.8 1.4 1.5 1.6 1.8 1.4 2.4-1.1 1.6.7 3-.4 4.5-.6 1-.2 2-.5 2.8 0 2.1 1 3.9-.2 5.7-1.1 0-.6-.4-.7-.6-.8-1-.4-1.5-1-1.5-2.5-.2-1.7-1-3-2.2-4-.6-.4-1-.8-1-1.8 2 .5 3.7 2.8 3.9 5.4 0 1.2.5 1.6 1.3 2 1.4.7 2.8 1.3 4.3 1.7.7.1 1.1.7 1.6 1.3.5.9 1.1 1.5 2 1.2 1-.3 1.2-1.5 1.2-2.3-.1-2 1-2.7 2.1-3.4 1.5-1 3-1.9 4.6-3.3-2.2-2.3-4.8-2-7.2-2.8a4 4 0 0 1 3.7-.3l4.7 2c.9.4 1.8.6 2.7 0 1.2-.5 2.3-.2 3.3.8l5.5 5.2a8.8 8.8 0 0 1 2.3 6.5c0 3 1 5.5 2.7 7.4 1.3 1.3 2 3 2.4 4.8.2.5.1 1 .5 1.4.3-.1.4-.3.4-.6.3-3.4 1.3-6.4 2.3-9.5 1-3.3 0-6.6-2.5-8.2l-4-2.2c-1.5-.8-2.8-2-3.8-3.6l-3.8-5.8c-1.2-1.8-2.7-2-4.4-1.5-3.1 1-6.3.8-9.4.9-.2 0-.3-.2-.5-.4.8-1.2 2-.3 2.9-1v-.3c-1.8-1.6-3.3-3.5-5.8-3-2.5.4-5-.2-7.4-.9-1.7-.4-2-1.7-1-3.2-1-.7-2-.6-3.1-.9-.9-.2-1.3-.6-.6-1.5.6-.6 0-1.2.2-1.8 1.4-.4 2 0 2.2 1.7 0 .7.5.6 1 .8 1.2.3 2.5.4 3.7 1.2-.4 1.5-1.5 1.5-2.3 2 .7.8 1.6.7 2.4.7l6.3.2a5 5 0 0 1 3 1.3c1.6 1.3 3.4 2.2 5.2 3 1 .5 2.1.5 3.2 0 2.4-1 4.1.6 5.7 2.5 1.2 1.5 2.2 3.2 3.3 5 1.9 3.3 4.8 4.2 7.5 5.6.8.4 1-.6 1-1.3v-5.8l-1.2-9c-.1-.8-.5-1.3-1-1.8a8.6 8.6 0 0 0-5-1.8c-.6 0-1.3-.2-1.8-.5-4.1-2.4-8.6-2.5-13-2.8-.8 0-1.6 0-2.4.4-1 .4-1.9-.2-2.5-1.3-.3-.6-.6-1.4-1.3-.4-.3.3-.7 0-1-.3-1.5-2-3.6-2.3-5.5-3.2-.4-.2-.9-.3-1.2-.6-.7-.7-.6-1.5.2-1.9l1.9-.5C64 71.5 62 69.6 59.6 69a3 3 0 0 1-.9-.5c-.9-.6-1-1.3-.1-1.9 1.3-.9 2.7-1.5 4.3-1.3.4 0 .8 0 .9.7 0 .7-.4.6-.8.7-1 .3-2 .3-3 1 2.2.2 3.7 1.6 5 3.6.8 1.2 2.2 1.1 3.2 1.9.5.3 1.2.3 1.2 1.2 0 .8-.8.7-1.2 1l-1.3.6c.9 0 1.7-1 2.5 0 .3.7-.5.7-.5 1.2.7.6 1.4.9 2.2 1a4 4 0 0 1 2.5 1.9c.6 1 1.3.9 2 .3 2.4-1.7 4.7-3.4 7.3-4.5.8-.3.7-1.3 1-1.9-.2-.5-.6-.6-1-.8-1-.3-2-.6-1.2-2.4.3-.6-.2-1-.6-1.2-1.6-.8-3.3-1.3-4.6-2.9-.5-.6-1.3-.2-2 0-2 .8-3.8.1-5.6-.3-.2 0-.4-.3-.4-.6.3-.8.8-.6 1.2-.4 1.7.5 3.3.6 5-.3.7-.4 1.3 0 1.9.4 1.6 1.3 3.3 2.4 5.1 3 .9.2 1.3 1 1.4 2 .2 1.1.7 1.5 1.6 1.6 1.5.1 2.8.6 4.2 1.8 1.7 1.4 3.6 2.6 6 2.8-.6-3.1-.4-6.4-3-8.3-1-.7-1.7-2-2.1-3.4.9-.7 1.4.5 2.3.2.2-1.7.1-3.5-.6-5a20.8 20.8 0 0 1-1.7-8.3c0-2.4-.6-3.5-2.5-4-1.1-.5-2.1-1.3-3.2-2a9 9 0 0 0-6.7-1.8c-.7.2-1.5.4-2.3.2a6.3 6.3 0 0 0-6.5 1.7c-1 .9-2.1.9-3.3.7-1.4-.2-2.9-.2-4.3.3-1.4.4-2.9-1-3-2.6-.1-.3 0-.6 0-.8l4-4.8c.4 1 0 1.5-.3 2L59.9 43c-.5.5-.7 1-.4 1.7.2.6.6.9 1.1.9 2.4-.1 4.5-.9 5.9-3.7.1-.4.3-.7.3-1.2.1-1.9 1.2-3.3 2.7-3.6.9-.1 1 .5.8 1.4-.2.8-.7 1.4-.7 2.3 1 .6 1.7-.1 2.3-.8 1.4-1.6 3-2.4 4.6-3.5.2-.2.5-.4.8 0 .2.9-.6 1.5-.6 2.5 0 1.3.2 2 1.5 1.8 1.6-.4 3.3-.2 5-.2 2 0 4-.6 5.9-1 .5-.1.9-.8 1.2-1.4a5.6 5.6 0 0 1 2.4-2.3c.3-.2.7-.2 1 .1.2.3.2.7 0 1a31.2 31.2 0 0 0-2.8 7.2l-.4.3c-.7-1 0-2-.2-3-.3 0-.6.3-1 0-.3-.3-.7-.4-1.1 0-.4.6-.2 1.2 0 1.7l1.6 4.4c.6 1.5.8 3 .9 4.5.2 2.9 1.1 5.6 2 8.2.3 1.2.6 2.3.4 3.6-.1 1.4.6 2.4 1.4 3.2 1 1 1.2 2.2 1.2 3.7 0 2-.2 3.9.6 5.7.4 1.3-.2 1.7-1.1 1.7-1.3-.2-2.6-.4-4-1-2.7-1.2-5.5-1.8-8.3.2h.1c4.3-1.9 7.9.4 11.4 2.9.7.5 1.4 1 2.2 1.2.8.2 1.4.8 1.6 1.8a208 208 0 0 1 2.6 16.4c-.6 3.7-.1 7.1 1 10.5.4 1.1.4 2.2 0 3.3a60 60 0 0 0-3 23.2 21 21 0 0 1-.6 5.3c-.8 3.7-1.3 7.4-.8 11.2.3 2.4-.2 4.8-.9 7l-2.1 6.7c-.2.4-.3.9-.8.9-.4-.6-.1-1.2 0-1.7a46.8 46.8 0 0 0 1.8-16c-.2-2.7.2-5.6 1-8.3.4-1.5.4-3 .4-4.6 0-2.8 0-5.5.2-8.3.4-3.9-.6-7.5-3-10.2-2-2.3-2.7-5.3-2.9-8.5-.1-3.3-1.4-5.5-4-6.6-1.5-.6-3-1.4-4.5-2.2-.6-.3-1.3-.3-2 .1-2.2 1.5-4.3 3.2-6.6 4.4-.6.3-.7 1-.7 1.6 0 1.4-.7 2.1-1.7 2.8-2 1.2-4 1.6-6.2.5-1.2-.6-2.5-.4-3.7-.2-3 .5-6.1.3-9.1-.4-1.5-.4-2.9.2-4.2.7-1.2.5-2.2.5-3.1-1-.6-1-1.7-1.3-2.7-1.2l-2.3.2c-1.8 0-3.2.5-4.8 1.8a8.8 8.8 0 0 1-8 1.8c-.8-.2-1.4-.7-.8-2 .3-.4.3-1 0-1.4-.9-1.6-1.7-3.2-3.4-4.2-3-1.9-5.8-.1-8.6.5-2.7.6-5.4.2-8.1.2-1 0-1-1-.6-2.1a16 16 0 0 1-4.2.2c-.7 0-1.6 0-1.8-1.1-.2-1 .5-1.7 1.2-2.1 2.5-1.6 5-3 8-2.9 1 0 2 .1 3.2-1l-2 .4c-.5 0-1 .2-1.2-.5-.2-.7.2-1.1.6-1.5l1.1-1c-1.2.1-2.3 0-3.4-.3-.4-.1-1-.3-1-1s.3-1 .7-1.3c1.3-1 2.8-1.4 3.9-3 .4-.7 1.4-.5 2.1-.5 2.4-.3 4.8-1 7.2-.6.6.1 1.2-.2 1.8-.4 2.5-1 5-2 7.7-1.9 2.3.1 4.5-.6 6.9-.5a17 17 0 0 0 7.9-2c3.2-1.6 6.4-2.8 10-2.7.4 0 1-.2 1.3.7-.6.7-1.3.7-2 .7-3 .3-6 1.2-9 2.5a19.6 19.6 0 0 1-8.8 2.1c-.8 0-1.6.1-2.3.3-2.9 1-6 0-8.7 1.3-2.8 1.3-5.8 1.2-8.7 1.3-1.3 0-2.8-.3-3.3 2-.1.6-.8.5-1.2.5-1.2-.2-2.2.4-3.4 1.2 1 .7 1.9.4 2.7 0 1.2-.5 2.5-.6 3.7-.3.4 0 .7.2.8.7-.1 1-1.1.6-1.5 1.4.6.5 1.1.3 1.7.1l3.4-1 1.9-.5c.5 0 1.3-.2 1.4.7 0 .9-.7.9-1.1 1-3.2 1-6.3 2-9.2 4a4 4 0 0 1-3.6.5c-.3 0-.6-.2-1 0a26 26 0 0 0-6.3 2.9c.5.7 1.1.4 1.6.5 1.4 0 2.8-.4 4.1-.8.6-.2 1.2-.6 1.7.1s-.3 1.2-.3 2c2 .4 4 .7 6 .3 2.5-.4 4.5-1.8 6.6-3.1 1.2-.9 2.2-.4 2.8 1.3-.2.8-.9.2-1.2.9 1 1.5 3.3 0 3.7 2.7.3 1.8 3 2.3 1.6 5.1 2 .4 3.6-.2 5.4-.6Zm39.2-69c.7.3 1.3-.2 2-.4 1-.3 1-1.1.6-2.2-1 .6-2 1.4-2.6 2.5ZM56.8 6.8c-1 .4-2 .4-2.9 1.3 2.4.3 4.7-1.4 7.5-.5-1.9 2.2-4.2 2.7-5.7 4.8.5 1 1.6.4 2 1.4-1.2 1-1.2 2-.3 3.3.5.7.2 1.2-.5 1.3l-2.3.3c-.8.2-1.7.3-1.9 1.6-.1 1.3-.1 2.8.8 3.6 1.6 1.3 2.9 3.1 5.1 2.9 1.7-.2 2.8 1.5 3.5 3.3.4 1.2-.4 1.4-.9 1.9 0 .7 1.1.8.6 1.7-.6 1-1.4.7-2 .6-.6 0-1.3 0-1.1-1.1 0-.7-.4-.8-.8-1-.8-.6-1.8-.7-2.7-1-.5 0-1.1-.3-1-1.2.2-.7.8-1 1.4-1 .5.1.9.5 1.2.9 1 1 2.1 1.2 3.3 1 1 0 1-.7.5-1.5-.5-1-1.2-1.4-2.1-1.2-1.6.3-2.8-.4-3.9-1.7-.3-.4-.7-.8-1.1-1-2-1.4-1.9-3.6-1.7-5.9a2 2 0 0 1 1-1.7l1.5-.5c.7-.2 1.5-.4 1.5-1.3-.1-1.2-1-.9-1.6-.9-1.6 0-3.2-.2-4.8-.6.7-2 1.3-2.5 2.7-2.1.6.2 1.2 0 1.7-.4 1-.9 1.8-2.4 3.2-2.8-1.5 0-2.9.3-4.2 1-.4.2-.9.7-1.3 0-.3-.5 0-1 .3-1.6 1.2-2 2.7-3.4 4.7-3.5L57 5c3.4-2 6.8-.7 10.2-.7 2.3 0 4.4 1.4 6.5 2.1 1.2.4 2.4.8 3.7.7.5 0 .9 0 1.3.3 1.7 1.3 3.4 1.1 5-.4L84 7c2.9-.1 5.6-1.2 8.5-.8 1.8.2 2.5-.6 2.1-2.9-.1-1-.6-2-.3-3 .3-.3.5-.2.7.1.6 1 1.4 1.3 2.4 1.4 1.6.3 1.7.5 1.4 2.4 0 .7 0 1.3.6 1.4l3.6.7c.4 0 1 .1 1.2-.6.2-.8-.4-1.1-.8-1.5-.4-.4-1-.5-1-1.3.3-.8.8-.3 1.2-.2 1.3.5 2.7.8 4 .8 1 0 2 .5 2.7 1.1 1.7 1.5 3.6 1.4 5.4.7 1.7-.8 3.5-.6 5.3-.5.5 0 1 .2 1 1-.3.6-.8.4-1.2.4a16 16 0 0 0-6.3.7c-1.6.6-3 .2-4.4-1-1.4-1.2-2.9-1.3-4.4-1-.2 1 .5 1.3.5 2-.4.7-1 .9-1.7.8l-5.4-.9c-1.2-.2-1.5-1-1.4-3.3-.7-.5-1-.3-1 .7-.3 2.5-1.3 3.8-3.2 3.4-1.7-.3-3.4 0-5.1.2l-2.8.2c-.5 0-1 0-1.4.3C82 10 80 10 77.7 8.6c-1.1-.7-2.6-.3-3.9-.9-3-1.2-5.9-2.4-9-2-.6 0-1-.2-1.6-.3-1.8-.6-3.6-.6-5.2.9l-1.2.5Z" fill="#fff"/>
  <path d="M86.1 13.7c3 .7 5.7 2.1 8.6 2 5.3-.3 10.6.2 15.5-3.3.4-.3 1-.7 1.2.1.3.7-.2 1.1-.6 1.4l-1.7 1c.4 1.6.1 2.3-1.2 2.5h-2.5c-3.9-.4-7.7-.6-11.6.5-.5.2-1 .3-1.5-.1-1.5-1.9-3.7-1.9-5.6-2.7-.2 0-.6-.1-.8-.3-.8-.5-.5-.8.2-1ZM95.5 52c-.2-1.3.9-1.8 1-3-.2-.5-.6-.5-1-.6L94 48c-1-.5-1.6-1.6-1.8-2.8-.1-1.1.8-1.2 1.4-1.7l1.2-.8c1.2-.8 2.3-1.3 3 .8.1.7.9.5 1.1 1.3-.5 1.4-2 .8-2.8 1.9 2.4-.6 4.4 1.6 6.7.9 0 1-.3 1.4-.8 1.4-2.1 0-3.6 2-5.5 2.8-.3.1-.5.4-1 .2Zm-1.7-7c.5.5 1 .4 1.5 0l-.1-.6c-.6-.4-.9.1-1.4.6ZM76.9 21.6c2.4.6 4.6 1.3 7 1 3-.4 5.9.4 8.8.9.5 0 .8.3 1 1-.6.8-1.3.4-2 .3-1.3-.3-2.5-.4-3.8.4-1.3.8-2.8 1-4.3 1.4-.3 0-.6 0-.9-.5 1.2-1.4 2.9-.7 4.2-1.6l-.2-.2c-4.2.7-8.2-1.4-12.3-1.8-1.5-.1-3 .2-4.5.3-.6 0-1.2.3-1.9-.9 3.1.2 5.9-1.4 8.9-.3ZM51.9 38.8l2.7-.8a3 3 0 0 1 3 .9c-.2 1-1 1-1.4 1.3-.6.4-1.2.6-1.7 1.3-.3.4-.4 1-.2 1.5.3.5.7.2 1 0 .6-.2 1-.7 1.8-.2a5 5 0 0 1-2.6 1.9c-.7.2-1-.6-1-1.2.1-2-1.3-2.4-2.2-3.2-.6-.4-1.3-.3-1.4-1.4 0-1.2 0-2.4.9-3.1l4.3-2.9c1-.5 1.7.7 2.6 1.1-.4.7-.9.7-1.3.7-1.7 0-3.1 1-4.6 1.7-.5.2-.9.9-.9 1.6 0 .7.5.8 1 .8ZM48.5 100.2c1.4-.2 2-1 2.4-2.6.8-3.2 2.4-3.4 5-2.2-.3.8-1 .8-1.5.6-1.4-.3-2.3.2-2.7 2-.5 2.3-1.9 3.3-3.6 3.3-2.5 0-5 .3-7.3.7-.2 0-.3-.1-.5-.4a24 24 0 0 1 8.2-1.4ZM66.3 70.1c-.6 0-1.2-.1-1.2-1 0-1 .7-.8 1.2-.8.7-.1 1.4-.3 2 .5-.3 1.2-1.1 1.2-2 1.3ZM65.8 22.9c1 .3 2 0 2.8.8-.6 1-3.5.7-4.8-.5.6-.7 1.2-.3 2-.3Z" fill="#fff"/>
</svg>