<svg width="734" height="85" viewBox="0 0 734 85" fill="none" xmlns="http://www.w3.org/2000/svg">
<path d="M417.419 34.0311C413.231 42.1301 405.455 44.0911 397.403 46.7311C405.251 56.7501 411.041 67.6551 419.883 76.3561C423.999 80.4071 429.196 80.9381 434.899 80.7991C434.398 82.0361 434.324 82.7431 434.04 82.8411C424.15 86.2621 411.85 82.8031 405.036 74.6241C399.379 67.8351 394.331 60.5871 389.592 53.1411C387.201 49.3841 384.141 47.7071 379.662 47.8141C373.176 47.9681 366.679 47.7311 360.189 47.5911C356.043 47.5021 353.545 48.6951 353.943 53.5921C354.347 58.5601 354.02 63.5821 354.275 68.5671C354.686 76.6111 357.27 79.1891 365.14 79.9141C366.737 80.0621 368.551 79.7191 369.988 82.3511C355.663 82.3511 341.798 82.3511 327.397 82.3511C329.271 79.1461 331.703 80.0191 333.687 79.8771C338.681 79.5171 341.64 77.0431 342.786 72.1731C343.323 69.8891 343.694 67.6281 343.689 65.2741C343.66 50.4531 343.721 35.6321 343.665 20.8111C343.623 9.75007 341.247 6.93507 330.542 4.76307C329.783 4.60907 329.077 4.19007 328.12 3.80307C329.173 1.23207 331.177 1.80507 332.819 1.80007C349.471 1.75207 366.123 1.71407 382.775 1.75207C389.777 1.76807 396.744 2.35907 403.48 4.41607C417.59 8.72607 422.903 19.8151 417.419 34.0311ZM382.312 42.6351C386.839 42.7721 391.279 42.1561 395.562 40.7321C404.319 37.8191 408.232 32.1021 407.809 23.1021C407.432 15.0651 403.37 10.1311 394.262 8.30907C382.773 6.01007 371.08 7.19107 359.482 7.62107C355.784 7.75807 354.213 10.6701 354.194 14.3071C354.152 22.2871 354.173 30.2691 353.989 38.2461C353.906 41.8731 355.652 42.7351 358.906 42.6701C366.385 42.5211 373.87 42.6271 382.312 42.6351Z" fill="black"/>
<path d="M512.963 32.952C511.181 39.983 513.911 46.857 512.196 53.531C511.381 53.374 510.844 53.391 510.795 53.244C507.787 44.274 500.836 42.689 492.509 43.058C485.525 43.367 478.512 43.251 471.519 43.06C467.766 42.958 466.043 44.039 466.215 48.145C466.502 54.965 466.23 61.807 466.355 68.636C466.46 74.395 468.264 77.036 473.817 77.349C485.944 78.033 498.121 78.29 510.246 77.176C518.374 76.429 523.991 71.802 527.952 64.852C528.799 63.365 529.125 61.297 531.276 60.797C534.093 71.114 525.466 83.251 515.176 83.144C497.523 82.96 479.864 83.77 462.214 82.556C457.429 82.227 452.577 82.984 447.753 83.079C446.052 83.112 444.016 83.757 442.799 81.668C443.844 79.526 445.948 80.154 447.62 79.818C453.616 78.614 455.86 76.434 455.898 70.462C456.018 51.802 456.002 33.14 455.865 14.479C455.822 8.56201 453.5 6.26102 447.554 5.18802C445.969 4.90202 444.231 5.08402 442.676 3.63602C443.985 1.32202 446.123 1.94602 447.914 1.94102C469.907 1.87902 491.901 1.84602 513.894 1.85702C518.372 1.85902 522.833 1.73402 527.178 0.916016C528.833 5.54002 527.649 17.512 525.223 21.699C523.032 20.984 523.811 18.935 523.444 17.498C521.773 10.963 518.356 7.57201 511.58 7.40601C498.758 7.09101 485.924 7.25102 473.096 7.23602C468.749 7.23002 466.61 9.82401 466.461 13.796C466.206 20.618 466.38 27.456 466.302 34.286C466.272 36.943 467.665 37.73 470.062 37.717C479.226 37.666 488.397 37.885 497.552 37.592C503.01 37.418 507.627 35.301 509.524 29.493C509.725 28.879 510.097 28.303 510.479 27.773C510.646 27.542 511.036 27.472 511.559 27.213C513.451 28.564 512.901 30.643 512.963 32.952Z" fill="black"/>
<path d="M248.301 63.813C248.249 66.959 248.528 69.569 249.207 72.185C250.454 76.983 253.281 79.584 258.34 79.861C260.317 79.969 262.744 79.188 264.55 82.381C250.12 82.381 236.207 82.381 221.802 82.381C223.472 79.315 225.705 80.059 227.553 79.888C233.985 79.294 237.234 76.726 237.561 70.303C238.517 51.497 238.264 32.665 237.711 13.849C237.551 8.40297 234.229 5.73097 228.596 5.17897C226.529 4.97597 224.21 5.60097 222.52 3.58497C223.535 1.30697 225.576 1.94997 227.244 1.94397C244.405 1.88097 261.568 1.72097 278.726 1.93097C286.706 2.02897 294.685 2.84997 302.263 5.75197C311.611 9.33197 316.802 16.162 317.025 25.143C317.239 33.727 312.34 40.726 303.288 44.729C295.838 48.023 287.904 48.976 279.894 49.164C270.901 49.375 261.899 49.33 252.904 49.175C249.429 49.115 248.066 50.393 248.272 53.847C248.459 57.001 248.303 60.176 248.301 63.813ZM249.281 9.98997C247.19 20.354 248.706 30.818 248.433 41.233C248.391 42.831 249.501 43.695 251.019 43.657C263.952 43.334 276.965 44.993 289.807 42.687C299.717 40.907 304.829 34.472 304.648 25.053C304.466 15.637 299.648 10.063 289.499 8.27397C277.633 6.18297 265.63 7.59697 253.689 7.42897C252.152 7.40797 250.823 8.19997 249.281 9.98997Z" fill="black"/>
<path d="M696.657 36.111C704.179 37.169 711.234 38.224 718.045 40.573C726.65 43.541 732.73 48.84 733.077 58.393C733.425 67.967 728.642 74.93 720.088 79.11C707.616 85.203 694.255 84.838 680.926 83.894C674.284 83.424 667.784 81.819 661.513 79.492C658.926 78.532 656.429 77.928 653.275 80.897C650.693 72.183 649.888 64.198 649.732 56.04C652.265 55.874 652.587 57.219 652.947 58.214C657.52 70.843 667.501 76.516 679.892 78.286C689.783 79.699 699.83 79.66 709.699 77.518C712.108 76.995 714.456 75.988 716.691 74.911C722.115 72.297 725.025 68.078 724.97 61.838C724.914 55.595 721.36 52.045 716.166 49.713C707.825 45.969 698.786 45.453 689.895 44.343C682.302 43.394 674.709 42.48 667.404 40.065C658.894 37.252 654.111 31.872 653.679 24.726C653.112 15.331 656.549 9.28601 665.605 5.52301C681.781 -1.19899 698.38 -0.701988 715.033 3.64901C720.643 5.11501 720.614 5.22501 725.065 4.10401C727.263 7.68801 728.35 19.167 726.995 24.696C725.383 25.025 725.007 23.754 724.716 22.707C721.791 12.187 713.693 7.89401 703.973 6.59301C694.918 5.38101 685.682 5.34101 676.65 7.40601C673.923 8.03001 671.255 9.09901 668.707 10.28C664.276 12.334 661.429 15.94 661.568 20.828C661.709 25.74 664.852 28.975 669.375 30.888C676.854 34.05 684.854 34.586 692.747 35.673C693.899 35.832 695.064 35.901 696.657 36.111Z" fill="black"/>
<path d="M581.316 84.138C573.567 83.226 566.344 81.99 559.508 79.254C556.883 78.204 554.722 78.735 551.784 80.723C549.163 72.233 548.614 64.139 548.146 56.037C550.543 55.612 550.932 56.744 551.334 57.863C556.007 70.86 566.265 76.711 579.046 78.406C588.265 79.629 597.651 79.597 606.898 77.777C607.388 77.68 607.892 77.649 608.376 77.534C617.897 75.27 623.45 69.902 623.672 62.758C623.906 55.211 619.467 50.508 609.068 47.7C597.952 44.699 586.36 44.604 575.11 42.367C570.527 41.455 566.004 40.393 561.827 38.216C549.473 31.777 548.403 15.896 559.866 7.90102C567.085 2.86602 575.513 1.41302 584.011 0.830024C595.026 0.0760241 605.989 0.703019 616.503 4.56202C619.049 5.49602 621.315 4.93602 624.206 3.51802C625.95 10.752 626.636 17.547 626.057 24.463C623.736 24.733 623.5 23.338 623.193 22.345C620.422 13.365 613.861 8.66702 605.092 7.14302C593.864 5.19202 582.58 5.13402 571.501 8.43502C569.102 9.14902 566.834 10.175 564.864 11.801C558.094 17.388 558.662 25.524 566.274 29.917C571.566 32.971 577.518 33.892 583.473 34.66C592.372 35.807 601.315 36.691 610.085 38.662C612.834 39.28 615.566 40.104 618.19 41.128C624.923 43.755 630.111 48.056 631.205 55.604C632.503 64.565 629.776 72.055 621.934 77.213C614.297 82.236 605.648 83.783 596.764 84.228C591.783 84.477 586.776 84.209 581.316 84.138Z" fill="black"/>
<path d="M22.215 19.225C9.89999 32.651 10.43 60.064 30.26 72.23C49.55 84.065 77.221 82.096 92.362 66.993C94.864 64.497 96.868 61.674 98.587 58.599C99.34 57.253 99.647 55.327 101.769 55.255C102.067 55.502 102.555 55.744 102.53 55.909C101.322 64.044 98.443 71.617 94.034 78.491C92.154 81.423 88.481 82.09 85.179 82.565C62.781 85.785 40.595 86.317 20.02 74.846C6.85598 67.506 0.127995 56.134 0.674995 40.764C1.189 26.334 8.50199 16.031 20.853 9.70699C42.2 -1.22261 64.488 -2.24471 87.207 5.37399C90.488 6.47399 93.637 8.22399 97.321 7.66799C98.578 7.47799 99.945 7.89899 99.989 9.27999C100.224 16.783 100.927 24.322 99.625 31.824C96.921 31.584 96.942 29.838 96.545 28.494C92.637 15.236 83.548 7.59799 70.153 5.85699C52.591 3.57599 35.821 5.40099 22.215 19.225Z" fill="black"/>
<path d="M169.457 40.4421C176.625 31.2181 183.67 22.3461 190.504 13.3151C195.04 7.31911 194.784 6.8361 187.953 4.5571C187.405 4.3741 186.971 3.8491 185.27 2.5701C196.487 2.5701 206.339 2.5701 216.761 2.5701C215.564 4.9611 213.807 4.9291 212.314 4.9881C207.2 5.1881 203.537 7.9271 200.535 11.6711C190.327 24.4051 180.161 37.1741 170.065 49.9971C166.228 54.8711 166.055 69.7971 169.685 74.8191C171.843 77.8031 174.904 79.3531 178.561 79.8131C180.12 80.0081 181.978 79.5091 182.998 81.3501C180.163 83.5391 146.299 83.7901 142.501 81.6571C143.503 79.5351 145.581 80.0611 147.271 79.7521C154.07 78.5121 156.751 75.3671 157.859 68.4671C159.426 58.7061 157.704 50.3551 150.681 42.7461C143.698 35.1811 137.927 26.5101 131.367 18.5351C125.836 11.8101 120.013 5.28511 110.401 4.52411C109.862 4.48211 109.366 3.8821 108.926 2.8331C120.706 2.0481 132.421 1.5601 144.13 2.4091C144.174 2.8341 144.219 3.2591 144.264 3.6841C143.742 4.0271 143.265 4.52811 142.692 4.69111C136.146 6.54611 135.719 7.3651 139.549 13.1691C146.713 24.0261 155.211 33.8881 163.091 44.2111C163.463 44.6991 164.104 44.9811 164.602 45.3451C166.909 44.3921 167.77 42.2511 169.457 40.4421Z" fill="black"/>
</svg>
